<svg xmlns="http://www.w3.org/2000/svg" id="Layer_2" data-name="Layer 2" viewBox="0 0 527.55 728.72">
  <defs>
    <style>
      .cls-1{fill:none;stroke:#000;stroke-linecap:round;stroke-linejoin:round}
    </style>
  </defs>
  <g>
    <path d="M420.69 247.46c-3.85-7.02-10.1-11.39-17.05-14.72-5.75-2.75-11.7-5.11-17.68-7.31-4.98-1.83-10.09-3.32-15.21-4.72-4.39-1.2-8.88-2-13.3-3.05-10.17-2.43-20.44-4.27-30.84-5.42-13.24-1.46-26.46-3.2-39.73-4.32-21-1.77-42.07-2.27-63.15-2.09-.18 0-.36.08-.54.13M219.91 205.84c-23.1.49-46.13 1.76-69.05 4.88-16.16 2.2-32.13 5.24-47.62 10.43-9.17 3.08-18.09 6.75-25.2 13.64-1.8 1.74-3.27 3.82-4.89 5.75" class="cls-1"/>
    <path d="M407.55 249.33c-2.51-3.43-6.25-5.15-9.93-6.77-12-5.29-24.75-8.07-37.51-10.77-5.43-1.15-10.9-2.08-16.38-2.93-5.33-.83-10.71-1.42-16.06-2.13-5.68-.76-11.34-1.66-17.04-2.28-6.8-.74-13.62-1.43-20.45-1.81-19.28-1.06-38.57-2.32-57.87-2.79-13.88-.34-27.79.35-41.67.82-9.04.31-18.11.64-27.08 1.7-12.93 1.53-25.87 3.17-38.59 6.18-10.54 2.5-20.94 5.48-30.54 10.51-7.27 3.81-13.87 8.63-17.73 16.29-.24.47-.54.9-.81 1.35M253.95 89.97c-1.27 2.32-.49 4.87-.5 7.24-.07 12 .22 24 .42 36 .12 7.58.36 15.17.44 22.75.05 4.93-.1 9.85-.16 14.82 5.25.36 10.21.68 15.18 1.04 5.59.4 11.19.75 16.77 1.26 3.56.32 7.08.94 10.63 1.34 4.14.47 8.29.83 12.43 1.3 2.22.25 4.44.62 6.65.98 3.11.51 6.21 1.04 9.31 1.59 8.96 1.6 17.93 3.22 27.05 4.87 1.62 7.96 3.22 15.8 4.83 23.74-.41.1-.72.28-.98.23-4.88-.91-9.74-1.97-14.64-2.74-5.09-.8-10.22-1.31-15.33-1.97-2.14-.28-4.27-.63-6.41-.93-5.76-.8-11.5-1.76-17.28-2.33-6.33-.62-12.7-.87-19.05-1.29-6.43-.43-12.86-.97-19.3-1.27-7.91-.37-15.83-.74-23.74-.76-12.58-.04-25.17-.07-37.74.42-13.1.51-26.18 1.57-39.26 2.54-15.56 1.15-31 3.35-46.12 7.2-11.41 2.9-22.8 6.18-32.67 12.97-2.96 2.04-5.39 4.84-8.06 7.29" class="cls-1"/>
    <path d="M378.83 92.45c-1.9-1.36-3.85-2.65-5.68-4.1-6.11-4.8-13.09-7.93-20.18-10.93-13.7-5.79-28.07-9.25-42.58-12.01-10.51-2-21.18-3.27-31.82-4.42-10.06-1.08-20.17-1.89-30.27-2.23-9.76-.33-19.55-.15-29.31.22-17.25.65-34.38 2.49-51.28 6.19-13.3 2.91-26.26 6.79-38.37 13.2-4.97 2.63-9.65 5.58-13.83 9.35-.48.44-1.41.39-2.12.57M519.9 628.66c2.09-.5 4.17-1 6.34-1.51 1.08 5.31 1.35 10.55-.82 16.01-2.06 5.2-3.07 10.82-4.57 16.25-2.75 9.98-5.54 19.95-8.27 29.94-1.75 6.39-3.37 12.81-5.12 19.2-1.77 6.48-3.62 12.93-5.5 19.66-43.8-.84-87.48-1.67-131.54-2.52-.1-2.12-.19-4.13-.29-6.14-.03-.52-.11-1.04-.15-1.56-.48-5.52 2.22-9.59 6.02-13.15M187.81 593.93c1.29 3.68 2.67 7.34 3.8 11.07.25.83-.1 2.1-.63 2.86-10.44 14.97-20.96 29.89-31.44 44.84-7.65 10.91-15.28 21.83-22.91 32.75-.3.43-.55.89-.82 1.34M132.72 690.93c-.21.38-.42.75-.64 1.13M128.98 696.2c-.72 1.11-1.43 2.22-2.15 3.33M123.74 703.66c-.21.38-.42.75-.64 1.13M119.13 708.86c-12.43-.56-24.85-1.13-37.28-1.66-8.24-.36-16.48-.62-24.71-1.01-9.39-.45-18.77-1.02-28.16-1.5-6.47-.33-12.94-.6-19.64-.9-.68-3.2-1.39-6.53-2.14-10.01 2.81-3.08 5.64-6.27 8.57-9.36.58-.61 1.52-.87 2.29-1.28M305.77 245.95c.2 3.77.4 7.54.62 11.65-2.08-.05-4.05-.07-6.01-.15-14.02-.61-28.05-1.31-42.07-1.83-8.19-.3-16.38-.39-24.58-.47-7.47-.07-14.94-.18-22.4.06-11.15.37-22.32.71-33.44 1.64-18.22 1.53-36.31 4.16-54.32 7.3-7.95 1.39-15.84 3.14-24.04 4.78l-.03-12.03" class="cls-1"/>
    <path d="M397.4 263.83c-4.18-1.79-8.26-3.87-12.55-5.3-4.94-1.64-10.05-2.78-15.12-3.98-4.59-1.08-9.2-2.15-13.86-2.85-9.12-1.37-18.27-2.53-27.42-3.67-6.69-.84-13.39-1.65-20.1-2.23-11.41-.99-22.83-2.01-34.26-2.61-11.11-.59-22.25-.86-33.38-.93-15.45-.1-30.91-.09-46.36.24-17.34.37-34.62 1.77-51.81 4.06-14.35 1.91-28.58 4.49-42.29 9.3-7.78 2.73-15.23 6.18-21.1 12.26-.69.72-1.22 1.58-1.82 2.38M438.75 249.75c-3.37 9.3-4.41 19.09-5.39 28.8-1.6 15.96-2.44 31.98-2.62 48.04-.22 19.57-.02 39.11 1.6 58.62 1.1 13.31 2.11 26.63 3.19 40.31 11.61-.59 22.66-1.15 33.83-1.72-.68-9.13-1.41-18-1.98-26.88-.89-14.01-1.64-28.03-2.54-42.03-.07-1.05-.25-1.86.84-2.37M359.35 266.7c-.08 4.48-.25 8.96-.21 13.43.06 8.43.33 16.86.36 25.28.05 10.68-.12 21.36-.07 32.04.05 10.64.26 21.27.42 31.91.12 7.67.29 15.33.4 23 .16 11.06.29 22.12.39 33.17.02 2.63-.11 5.26-.18 8.38 7.37 1.44 14.8 1.67 22.68 2.81.16-1.97.42-3.86.44-5.76.1-7.37.17-14.74.16-22.1 0-6.04-.18-12.08-.21-18.12-.05-8.57 0-17.14-.07-25.71-.06-7.41-.24-14.81-.31-22.21-.1-9.85-.11-19.71-.22-29.56-.1-8.77-.27-17.54-.41-26.31-.08-5.28-.16-10.56-.25-15.83 0-.36-.08-.73-.08-.78-4.27-.96-8.29-1.97-12.34-2.76-3.66-.71-7.37-1.18-11.05-1.76M275.92 586.84c.49.45.91 1.05 1.49 1.33 6.54 3.09 10.62 8.04 12.11 15.21 1.52 7.28 3.51 14.47 4.93 21.76 1.48 7.61 2.75 15.28 3.71 22.98.72 5.81.82 11.7 1.2 17.55M297.86 668.9c-4.66 1.92-9.64 1.96-14.52 2.26-9.31.57-18.65.77-27.97 1.13M252.08 672.19c-1.11.05-2.23.09-3.34.14M245.46 672.22l-1.29.09M240.88 672.2c-18.95-.41-37.94-.15-57.05-3.32-.24-1.39-.72-2.59-.6-3.71.61-5.45 1.21-10.91 2.15-16.31 1.22-7.01 2.56-14.01 4.22-20.93 2.49-10.38 5.35-20.68 7.94-31.04 1.15-4.59 4.13-7.21 8.35-8.85.71-.27 1.15-1.22 1.72-1.86M420.95 248.53c-3.76.51-7.51 1.12-11.29 1.49-3.37.33-5.15 2.71-5.9 5.32-1.74 6.03-3.06 12.2-4.2 18.38-.79 4.25-1.05 8.6-1.43 12.91-.4 4.42-.81 8.84-.94 13.27-.17 6.1-.1 12.21-.09 18.31.01 7.73-.04 15.46.13 23.18.26 11.54.61 23.07 1.1 34.6.42 9.97 1.03 19.93 1.64 29.89.38 6.22.85 12.43 1.42 18.63.14 1.48.57 3.06 1.3 4.35 3.09 5.45 6.17 10.92 9.6 16.14 2.35 3.57 3.11 7.31 3.26 11.47.49 13.8 1.18 27.6 1.81 41.39.21 4.55.54 9.1.69 13.66.03 1.04-.43 2.1-.67 3.15M414.54 524.47c-1 1.98-2 3.96-2.99 5.94M408.31 532.35c-13.76-.26-27.53-.53-41.29-.79M363.73 531.46l-30.2-.33M330.24 531.03c-4.49-.04-8.97-.07-13.46-.11M313.5 530.81c-10.75-.09-21.5-.19-32.25-.28M277.96 530.43c-1.27 0-2.55.02-3.82.03M270.85 530.35h-8.4M259.17 530.26c-1.27 0-2.55.02-3.82.03M252.06 530.18c-2.8 0-5.6 0-8.4.01M240.38 530.09c-46.38-.23-92.75-.46-138.05-.69-2.82 2.96-4.84 5.17-6.96 7.28-3.77 3.76-7.61 7.45-11.41 11.17M74.62 270.14c-4.17.08-8.35.2-12.52.22-7.55.03-15.09 0-22.64-.01-.84 0-1.7.03-2.53-.07-6.36-.79-10.18 3.31-14.11 7.26-7.1 7.12-11.29 15.94-14.53 25.24-1.96 5.62-3.72 11.38-4.86 17.22-1.21 6.19-1.72 12.53-2.29 18.82-1.32 14.34-.52 28.63 1.55 42.83 1.64 11.23 3.61 22.42 5.64 33.59 1.35 7.43 3.1 14.78 4.6 22.19.28 1.4 1.3 2.3 2.33 1.97 3.69-1.18 7.41-.3 11.09-.39 6.06-.14 12.13.18 18.19.49 5.17.26 10.34.8 15.5 1.17 2.43.18 4.86.26 7.29.38" class="cls-1"/>
    <path d="M35.02 270.87c-6.72 6.25-11.91 13.69-15.78 21.91-2.43 5.17-4.32 10.7-5.7 16.25-1.86 7.46-3.42 15.05-4.34 22.67-.98 8.06-1.56 16.24-1.42 24.35.2 11.27.9 22.57 2 33.79 1.52 15.52 4.38 30.85 8.38 45.94.27 1 .57 1.99.85 2.99M13.97 439.68c-1.55 6.1-3.21 12.17-4.59 18.3-.8 3.55-1.12 7.21-1.73 10.81-1.29 7.57-1.66 15.19-1.34 22.86.43 10.13 2.14 19.94 6.06 29.39 4.31 10.38 11.65 17.85 21.24 23.34 9.2 5.27 19.23 8.66 28.88 12.92 4.44 1.96 8.97 3.91 12.98 6.58 4.21 2.8 6.27 7.32 6.92 12.38.53 4.09 1.13 4.63 5.47 5.07.48.05.93.36 1.4.55M98.15 130.9c-3.67 3.62-5 8.35-5.96 13.16-.39 1.96-.13 4.04-.16 6.07M90.14 164.72l-.85 2.1M86.7 177.69c-.47 1.51-.93 3.01-1.4 4.52M82.5 194.05c-.97 4.11-1.93 8.22-2.92 12.32-.16.64-.44 1.26-.67 1.88M77.76 212.83c-.48 1.93-.96 3.85-1.43 5.78-1.31 5.39-2.91 10.73-3.82 16.18-1 5.97-1.58 12.07 1.24 17.84.62 1.27 1.3 2.5 1.8 3.47-.24 6.75-.46 13.22-.67 19.22-2.12 2.26-4.29 4.07-5.83 6.31-3.84 5.59-7.26 11.4-9.55 17.91a108.17 108.17 0 0 0-5.43 23.72c-1.14 10.01-1.16 20.09-.57 30.18.77 13.18 2.54 26.24 4.8 39.2 2.79 16.01 6.42 31.87 9.76 47.78.16.78.99 1.43 1.51 2.14" class="cls-1"/>
    <path d="M74.47 276.47c-.06 3.63-.07 7.27-.18 10.9-.28 9.26-.66 18.52-.9 27.78-.28 10.38-.39 20.77-.7 31.15-.27 9.17-.8 18.32-1.07 27.49-.21 7.1-.12 14.22-.27 21.32-.18 8.6-.49 17.19-.71 25.79-.16 6.59-.32 13.17-.38 19.76-.11 11.95-.22 23.89-.19 35.84.03 12.24.19 24.49.36 36.73.05 3.95 1.56 7.55 3.07 11.13M80.09 531.2c-2.54 2.23-5.1 4.42-7.6 6.7-.9.82-1.62 1.83-2.42 2.75M269.53 458.41c1.32-6.24 1.13-12.6.86-18.87-.58-13.44-1.59-26.87-2.55-40.29-.42-5.76-.52-6.09-6.04-6.86-4.89-.68-9.92-.8-14.87-.6-9.91.42-19.81 1.12-29.7 1.94-3.49.29-6.93 1.22-10.37 1.95-.95.2-1.84.71-2.94 1.16.48 9.94.81 19.61 1.46 29.26.52 7.65 1.35 15.27 2.21 22.89.38 3.38 1.24 6.71 1.73 10.08.32 2.18 1.7 3.12 3.6 3.32 4.66.47 9.34 1.18 13.99 1.07 11.73-.27 23.43-1.16 35.03-2.97 2.16-.34 4.28-.89 6.41-1.34M493.87 538.81c3.98 14.3 7.98 28.6 11.94 42.9 3.94 14.2 7.81 28.41 11.79 42.6.9 3.19 1.12 6.14-.02 9.44-1.81 5.23-3.03 10.67-4.48 16.03-2.06 7.59-4.08 15.2-6.17 22.78-2.6 9.42-5.22 18.84-7.94 28.24-.4 1.37-1.38 2.57-2.1 3.86M469.75 424.7c.37 6.62 1.29 13.26.98 19.84-.38 8.13.36 16.18.55 24.27.29 11.98.82 23.95 1.28 35.92.33 8.56.71 17.13 1.07 25.69.15 3.69.31 7.38.45 10.9-.74 2.34-1.33 4.61-2.18 6.77-1.97 5-4.03 9.96-6.15 14.9-2.56 5.97-5.26 11.87-7.81 17.84-1.48 3.46-3.36 6.9-4 10.54-.56 3.22.49 6.7.58 10.07.34 12.7.62 25.4.8 38.1.04 2.57-.39 5.16-.7 7.72-.72 6.13-6.36 11.25-13.14 12.08-6.29.78-11.94-.72-17.13-4.17-3.36-2.23-4.64-5.4-5.09-9.49-1.83-16.54-1.89-33.16-2.66-49.75-.08-1.62-.08-3.25-.13-5.24 2.08-2.44 4.44-5.06 6.58-7.84.66-.86.72-2.18 1.06-3.3M82.22 576.98c-2.57 2.28-4.53 4.99-6.18 8.01-1.31 2.4-.35 4.76-.21 7.07.68 11.59 1.35 23.17.78 34.8-.19 3.86-.68 7.61-1.55 11.36-1.13 4.87-4.53 7.02-8.96 7.87-5.82 1.11-11.18.05-15.94-3.78-3.23-2.6-3.57-6.22-3.84-9.82-1.06-14.04-2-28.1-2.99-42.14-.11-1.49-.29-2.97-.44-4.44-4.83-.4-9.57-.79-14.32-1.18M253 90.77c-6.6-.05-13.21-.09-19.81-.15-8.21-.07-16.42-.15-24.63-.2-1.57 0-3.13.13-4.56.2-2.17 27.19-4.33 54.11-6.51 81.39-3.35.28-6.84.67-10.34.84-12.41.58-24.75 1.84-37 3.9-8.23 1.38-16.58 2.36-24.61 4.49-9.41 2.49-18.77 5.39-27.53 9.9-6.09 3.14-11.44 7.09-15.96 12.21-.1.11-.35.1-.53.14M312.1 335.18c-.38 1.7-1.01 3.38-1.11 5.09-.44 7.55-.83 15.11-1.05 22.67-.11 3.89-.59 8.12 3.13 10.85 3.16 2.31 6.44 4.22 10.72 4.39 3.53.14 6.88.27 10.16-1.16 4.31-1.89 6.57-5.47 6.6-9.97.04-6.59.25-13.17.36-19.76.05-3.05.05-6.1.08-9.23-4.5-.48-8.98-.92-13.44-1.43-4.79-.54-9.58-1.14-14.37-1.71M365.64 532.01c.6 2.11-1.2 3.24-2.12 4.59-7.71 11.37-15.53 22.66-23.39 33.93-3.6 5.17-7.38 10.22-11.24 15.55-4.61.03-9.39.12-14.16.09-11.26-.05-22.52-.15-33.79-.23-1.53-.01-3.05-.01-4.58-.02M273.09 585.82c-6.17-.08-12.35-.19-18.52-.23-14.91-.08-29.83-.12-44.74-.17-.18 0-.36.08-.54.13M206.01 585.44c-5.92-.06-11.84-.13-17.77-.19-8.46-.09-16.92-.17-25.39-.26-3.21-.03-6.46-.4-9.62-.02-1.8.22-2.47-.37-3.25-1.61-4.87-7.65-9.78-15.28-14.67-22.91-5.83-9.12-11.68-18.22-17.46-27.38-.59-.94-.73-2.17-1.07-3.27M128.32 664.74c-1.22-11.13-2.43-22.27-3.66-33.4-1.25-11.31-2.46-22.63-3.82-33.93-.53-4.34-2.09-8.36-4.62-12.01-3.89-5.63-9.59-6.98-15.82-6.51-3.01.22-6.36.81-8.83 2.37-3.62 2.28-6.15 5.83-7.55 10.12-1.89 5.81-.63 11.55-.02 17.3 1.87 17.83 3.74 35.65 5.78 53.46.45 3.96.7 7.95 2.31 11.78 2.46 5.83 6.57 9.92 12.53 11.28 5.86 1.34 11.52-.28 16.45-4 1.02-.77 2.28-1.2 3.43-1.79M398.73 669.52c-.46-8.84-.9-17.69-1.4-26.53-.69-12.21-1.51-24.41-2.13-36.63-.4-7.74-2.3-14.79-8.51-19.96-7.06-5.88-17.37-7.19-25.86-2.88-6.33 3.21-9.82 8.33-11.87 14.71-1.48 4.63-.66 9.42-.42 14.15.55 10.91 1.14 21.82 1.77 32.72.58 9.99 1.14 19.97 1.92 29.95.7 8.98 5.49 15.6 13.47 19.21 11.07 5.01 22.69 1.64 29.93-9.2 2.33-3.49 3.31-7.79 3.63-12.12.35-4.66 1.17-9.29 1.28-13.95.22-9.49.47-19.01.04-28.48-.59-12.7-1.86-25.37-2.7-38.06-.08-1.22.59-2.68 1.33-3.73 7.01-9.99 14.12-19.91 21.19-29.85.2-.27.31-.61.47-.91" class="cls-1"/>
    <path d="M492.46 443.57c2.25.93 4.49 1.87 6.75 2.79 1.59.65 1.86 1.75 1.84 3.46-.04 3.52.41 7.05.57 10.58.28 6 .49 11.99.73 18.17-8.01 7.95-16.13 16.03-24.26 24.1-.88.87-1.08 1.89-.97 3.1.66 7.01 1.44 14.01 1.79 21.04.11 2.31-.92 4.69-1.5 7.01-.38 1.52-.88 3.01-1.48 5.02 5.89-.24 11.33-.46 17.01-.69-1.25 3.24-2.41 6.28-3.59 9.31-2.61 6.71-5.18 13.43-7.86 20.11-2.97 7.4-5.97 14.78-9.09 22.12-1.04 2.44-.17 4.69.3 6.93 2.12 10.11 4.44 20.17 6.6 30.27 5.22 24.32 10.39 48.66 15.62 72.99.3 1.41.89 2.75 1.34 4.13M496.47 704.3c.15 2.38.29 4.77.44 7.17-40.21-1.08-80.16-2.14-120.09-3.21-.18-1.12-.31-1.97-.45-2.81M377.2 702.33c.64-1.89 1.28-3.78 1.92-5.68M291.66 326.5c-.08 3.72-.2 7.43-.22 11.15-.05 10.26-.03 20.52-.09 30.78-.04 6.43-.2 12.85-.24 19.28 0 .83.38 1.65.58 2.46 18.07.44 36.03.88 54.4 1.32.06 2.63.22 5.14.15 7.65-.23 9.1-.53 18.2-.8 27.3-.23 7.75-.48 15.51-.66 23.26-.32 13.68-.53 27.36-.89 41.03-.17 6.59-.58 13.18-.88 19.77M192.25 585.52c.39 2.72-1.93 4.1-3.19 5.86-8.48 11.98-17.18 23.8-25.78 35.7-11.49 15.89-22.95 31.81-34.44 47.7-.45.63-1.09 1.12-1.64 1.67M124.76 679.97c-2.11 3.17-4.21 6.35-6.36 9.5-.65.95-1.44 1.79-2.28 2.81-5.16-.17-10.47-.36-15.78-.51-7.59-.21-15.18-.33-22.77-.58-5.71-.19-11.41-.58-17.12-.78-6.75-.23-13.5-.3-20.24-.53-5.71-.2-11.41-.52-17.12-.8-1.51-.07-3.01-.17-4.97-.28.06-2.21-.02-4.44.2-6.65.75-7.37 1.64-14.73 2.41-22.1.91-8.71 1.74-17.42 2.6-26.14.67-6.72 1.33-13.44 2.01-20.16.88-8.79 2.05-17.57 2.51-26.39.19-3.67 2.61-5.43 4.49-7.62 4.01-4.67 8.4-9.01 12.63-13.48M216.1 326.49c-20.01.59-40 1.24-59.97 2.89-17.82 1.47-35.48 3.77-52.98 7.3-10.05 2.03-19.92 4.85-29.3 9.11M401.32 219.42c-1.48-6.95-2.78-13.95-4.5-20.84-3.27-13.11-6.94-26.11-10.16-39.23-5.28-21.49-10.35-43.03-15.47-64.56-.43-1.81-1.15-3.15-2.93-4-2.33-1.12-4.51-2.54-6.8-3.76-.72-.39-1.57-.54-2.36-.81M298.39 663.17c-4.49.34-8.97.89-13.47.99-10.03.24-20.07.47-30.1.33-15.35-.22-30.69-.74-46.03-1.19-6.89-.2-13.78-.54-20.67-.85-.73-.03-1.45-.31-2.18-.47M297.62 650.78c-9.21.21-18.41.54-27.62.61-9.74.07-19.47-.1-29.21-.2-10.4-.11-20.8-.29-31.2-.41-6.6-.08-13.21-.07-19.81-.17-1.49-.02-2.98-.31-4.47-.48M298.14 657.51c-15.22 1.11-30.45.89-45.69.64-14.96-.25-29.92-.44-44.88-.73-6.65-.13-13.3-.43-19.95-.68-.49-.02-.97-.21-1.45-.32M195.41 52.84c-.56-1.71.91-2.07 1.88-2.61 4.83-2.7 10.04-4.3 15.45-5.47 17.26-3.73 34.65-3.73 52.04-1.62 6.55.8 13.04 2.36 19.4 4.15 3.8 1.07 7.75 2.3 10.79 5.14.77.72 1.34 1.64 2 2.47M299.5 56.1l6.62 1.11" class="cls-1"/>
    <path d="M312.2 58.45c7.36 1.96 14.76 3.78 22.07 5.92 5.11 1.49 10.2 3.14 15.1 5.2 10.22 4.29 19.98 9.33 27.6 17.79 2.17 2.41 2.44 5.36 3.37 8.03 5.17 14.94 9.96 30 14.88 45.03M411.41 197.26c2.9 11.6 5.8 23.19 8.66 34.8.06.25-.28.6-.43.91M295.57 635.05c-4.29.22-8.58.59-12.87.63-11.28.09-22.56.1-33.84.01-13.61-.11-27.23-.36-40.84-.54-6-.08-12.01-.15-18.01-.26-.57-.01-1.13-.24-1.7-.37M294.39 643.69c-3.91.05-7.83.12-11.74.15-11.38.07-22.76.21-34.14.17-10.48-.04-20.96-.3-31.44-.45-8.79-.13-17.59-.23-26.38-.37-.49 0-.97-.21-1.45-.31M96.85 338.52c0 3.73.09 7.47 0 11.2-.27 10.79-.61 21.57-.93 32.36-.2 6.57-.42 13.14-.63 19.71-.19 6.07-.4 12.13-.54 18.2-.12 5.58-.13 11.16-.24 16.75-.13 6.75-.3 13.5-.5 20.25-.24 8.34-.57 16.67-.79 25.01-.26 9.62-.45 19.24-.67 28.86M296.87 55.38l-4.52-.26M289.17 54.53c-18.25-2.32-36.55-3.74-54.96-3.37M230.92 51.06c-11 .66-22.04.96-33 2.07-9.2.93-18.36 2.55-27.45 4.32-11.55 2.26-22.88 5.52-33.44 10.79-6.01 2.99-11.79 6.53-17.32 10.35-3.63 2.51-5.28 6.83-7.09 10.79-3.72 8.14-6.76 16.54-9.27 25.13-1 3.43-2.21 6.8-3.28 10.2-.17.54-.11 1.16-.16 1.74" class="cls-1"/>
    <path d="M108.82 186.24c.08-1.09.02-2.2.25-3.25 1.62-7.35 3.27-14.7 4.96-22.04 3.21-13.95 6.48-27.89 9.67-41.84.66-2.91 1.08-5.87 1.68-9.22-2.42 1.18-4.59 2.14-6.67 3.27-4.98 2.73-9.9 5.59-14.89 8.3-.74.4-1.74.32-2.62.46M357.51 84.33c1.81 1.23 1.21 3.29 1.64 4.97 1.28 4.98 2.34 10.02 3.52 15.02 4.59 19.45 9.22 38.89 13.8 58.34 3.31 14.05 6.6 28.1 9.79 42.18.71 3.11.98 6.31 1.46 9.47M465.97 352.34c.93 3.01 1.87 6.02 2.79 9.03.22.71.26 1.48.55 2.15 1.77 4.04 3.44 4.88 7.97 4.1 5.84-1 6.39-1.24 7.35-6.99.83-5.01 1.4-10.13 1.39-15.2-.02-9.49-.38-18.99-.94-28.46-.33-5.59-1.29-11.13-1.96-16.69-5.16-1.5-9.56-.04-14.3.73-4.22 15.1-4.18 30.45-3.4 45.86M288.3 601.85c-2.81.04-5.62.18-8.43.12-7.83-.19-15.67-.46-23.5-.71-13.14-.41-26.27-.88-39.41-1.24-5.92-.16-11.84-.13-17.77-.23-.65-.01-1.29-.27-1.94-.42M161.85 439.46c-.11.48-.07 1.27-.35 1.41-5.7 2.79-8.53 8.04-11.04 13.34-2.62 5.52-4.7 11.3-6.96 16.99-3.31 8.34-5.7 17.07-10.22 24.92-2.11 3.65-5.06 6.34-9.28 7.31-4.45 1.02-8.16-1.26-6.66-6.58.25-.87.41-1.77.61-2.66M286.49 596.35c-2.73.06-5.46.24-8.18.17-6.81-.19-13.62-.56-20.43-.76-13.23-.39-26.47-.7-39.7-1.09-5.89-.17-11.77-.45-17.66-.66-.52-.02-1.04.09-1.56.15M245.79 300.88c-5.06-.12-10.12-.28-15.18-.36-3.73-.06-7.47-.02-11.2.02-.67 0-1.34.24-2.15.4l.12 5.73c-8.81.58-17.53.96-26.21 1.78-18.68 1.76-37.36 3.5-55.98 5.73-13.75 1.65-27.41 4.08-41.11 6.18-.65.1-1.28.38-1.92.57-1.5.44-2.64.19-3.55-1.29-2.26-3.66-2.7-7.75-2.87-11.87-.3-7.09 1.14-13.69 5.85-19.29 2.64-3.15 6.37-4.15 10.07-5.08 13.75-3.47 27.8-5.01 41.88-6.33 11.15-1.05 22.3-2.06 33.47-2.87 12.72-.92 25.45-1.59 38.18-2.33.71-.04 1.45.3 2.52.54.12 2.96.26 6.25.4 9.7 9.73-.34 19.32-.68 28.99-1.02.06-3.84.11-7.39.16-11.19 2-.03 4.15-.11 6.3-.08 12.43.16 24.86.23 37.28.61 2.49.08 5 1.2 7.39 2.12 4.46 1.72 8.84 3.68 13.27 5.49 3.95 1.61 7.95 3.13 11.9 4.74 2.49 1.02 4.95 2.12 7.42 3.2.62.27 1.23.6 1.91.94.03 5.24.05 10.5.08 16.05-2.73.68-5.39 1.34-8.05 2-8.26 2.04-16.53 4.07-24.79 6.12-2.44.61-4.84 1.55-7.31 1.83-2.49.29-5.05 0-7.58-.12-2.34-.12-4.67-.3-6.99-.58-.97-.12-1.9-.57-2.85-.87M388.56 675.12c1.25-4.79-1.28-11.4-7.4-14.62-5.76-3.03-11.29-2.07-16.17 1.95-4.26 3.51-5.73 8.39-4.58 13.66 1.37 6.25 5.43 10.29 11.87 11.33 7.2 1.16 14.38-3.57 15.72-9.9M175.67 95.21c-.48 2.86-.97 5.72-1.42 8.59-.96 6.06-1.86 12.13-2.85 18.19-1.18 7.28-2.45 14.55-3.64 21.83-1.47 9-2.88 18.01-4.32 27.02M122.82 666.56c1.31-7.29-3.38-14.34-10.96-15.69-6.41-1.14-13.36 2.36-15.27 10.28-1.69 7 2.67 14.09 9.62 15.87 7.65 1.95 14.49-2.62 16.39-9.49M416.49 515.24c-2.82-.3-5.63-.68-8.45-.87-8.44-.59-16.88-1.17-25.33-1.64-6.97-.39-13.95-.56-20.91-.94-7.28-.39-14.55-.96-21.83-1.33-6.14-.31-12.29-.38-18.44-.63-4.95-.2-9.89-.52-14.83-.79-4.94-.27-9.88-.64-14.83-.78-12.65-.37-25.3-.72-37.96-.93-12.1-.2-24.21-.34-36.32-.3-18.1.06-36.2.2-54.3.49-7.72.12-15.44.74-23.16 1.09-4.87.22-9.75.35-14.62.53-10.94.41-21.85 1.32-32.77 2.03-6.29.41-12.58.89-18.88 1.33l-2.59.18M330.13 579.99c-5.24-.08-10.48-.21-15.72-.23-12.81-.04-25.61.02-38.42-.04-9.56-.05-19.11-.24-28.67-.34-11.76-.13-23.53-.26-35.29-.32-8.91-.04-17.82.04-26.73.06-10.1.02-20.19.04-30.29.02-1.25 0-2.49-.21-3.74-.32M382.97 437.19c-.02 5.34-.02 10.68-.06 16.02-.06 9.32-.11 18.63-.2 27.95-.1 9.98-.26 19.96-.38 29.94 0 .18.08.36.13.54M291.04 377.76c-4.36-.22-8.72-.5-13.08-.65-6.75-.22-13.49-.36-20.24-.51-8.19-.17-16.39-.28-24.58-.47-5.3-.12-10.61-.35-15.91-.53" class="cls-1"/>
    <path d="M291.02 327.11c-3.62-.14-7.23-.37-10.85-.39-7.39-.04-14.77.06-22.16.06-9.84 0-19.67 0-29.51-.05-3.55-.02-7.1-.17-10.94-.27-.75 22.23-.83 44.3-.67 66.38M465.45 551.99c-.63 2.06-1.06 4.22-1.94 6.17-3.55 7.87-7.11 15.74-10.93 23.48-1.31 2.64-.73 5.18-.62 7.76.41 10.21.97 20.41 1.42 30.62.04.8-.34 1.61-.54 2.52-6.69 1.73-13.54 2.28-20.41 1.32-3.15-.44-5.64-2.16-6.07-5.86-.63-5.43-1.68-10.83-2.09-16.28-.44-5.78-.33-11.59-.49-17.39-.01-.38-.32-.76-.49-1.13" class="cls-1"/>
    <path d="M270.27 349.15c2.28-10-7.22-22.16-20.26-19.58-9.21 1.82-14.63 9.42-14.04 18.68.36 5.53 3.39 9.86 8.09 13.14 3.27 2.28 6.62 2.65 10.41 2.59 5.8-.08 11.61.36 17.42.54 6.41.2 12.81.35 19.22.53M359.08 333.31c-3.8-.43-7.6-.9-11.41-1.3-8.21-.86-16.41-1.71-24.63-2.5-8.81-.84-17.62-1.62-26.43-2.4-1.42-.13-2.85-.14-4.28-.21M127.69 448.8c-4.37.2-8.75.35-13.11.66-.8.06-1.66.66-2.3 1.23-2.31 2.06-4.61 4.15-6.76 6.38-.65.67-1.12 1.82-1.13 2.76-.16 9.4-.25 18.79-.27 28.19 0 1.31-.23 2.78 1.4 3.7.92.52 1.47 1.68 2.13 2.48 7.63-.18 15.13-.35 22.64-.52M167.27 439.15c-.39.59-.64 1.41-1.18 1.74-5.87 3.59-9.15 9.29-12.24 15.09-1.3 2.44-2.27 5.07-3.25 7.66-.28.74-.08 1.67-.1 2.52M149.06 469.66c-2.17 5.28-4.22 10.61-6.53 15.82-1.86 4.2-3.83 8.37-6.12 12.35-2.66 4.63-6.27 8.31-11.76 9.62-.59.14-1.05.83-1.58 1.26M154.9 115.08c2.84 2.46 5.75 4.85 8.45 7.45.54.52.47 1.87.4 2.82-.64 9.32-6.02 16.56-16.66 17.71-2.61.28-3.5-1.66-4.97-2.66-1.32-.9-2.49-2.04-4-2.82-3.02-1.55-4.43-4.86-3.69-8.42.51-2.43.74-5.1 1.96-7.16 2.81-4.76 5.87-9.38 12.31-10.07 3.02-.32 4.16 1.76 5.92 3.21M214.76 493.64c-18.77.51-37.55 1.06-56.33 1.51-3.19.08-6.39-.23-9.58-.35M485.43 420.61c2.34-6.14 6.24-10.97 11.9-14.36.18-5.42.37-10.84.54-16.06-5.23.13-10.03.15-14.82.41-2.63.14-5.49-.03-7.07 2.94-.58 1.1-1.5 2.02-2.1 2.8.73 13.51 1.47 26.74 2.11 39.98.09 1.9-.18 3.84-.52 5.73-.5 2.77-1.21 5.5-1.95 8.78 4.76-.1 9.16-.2 13.75-.3 3.12-4.48 6.33-9.03 9.45-13.63.39-.57.57-1.46.49-2.15-.35-3.06-.84-6.09-1.3-9.25-3.45.63-6.45 1.15-9.43 1.77-.39.08-.67.66-1.01 1.01M479.1 299.83c-.28 2.74-.63 5.47-.82 8.21-.38 5.6-.99 11.22-.94 16.82.08 9.32.23 18.67 1.81 27.9.68 3.97 1.75 7.87 2.64 11.81" class="cls-1"/>
    <path d="M264.46 347.84c1.14-5.12-3.28-12.63-10.89-12.62-6.84.01-10.9 4.44-11.57 9.83-.92 7.4 4.27 11.81 9.27 12.78 6.27 1.22 11.75-3.37 12.65-7.58M472.61 543.94c-1.83 1.71-3.7 3.37-5.47 5.13-2.9 2.88-5.87 5.71-8.54 8.79-1.18 1.36-1.69 3.3-2.47 5-2.87 6.27-6.09 12.31-11.25 17.04-4.25 3.91-12.17 4.72-17.39 1.65-5.9-3.48-8.27-10.03-7.98-14.97.16-2.83 1.57-4.93 2.36-7.38 1.02-3.17 2.22-6.29 3.38-9.42.26-.71.64-1.38.97-2.07M214.05 488.9c-16.63.4-33.26.83-49.89 1.2-4.15.09-8.31 0-12.46 0M205.96 437.96c-4.74-.05-9.48-.19-14.21-.13-5.64.07-11.28.25-16.91.51-4.23.2-8.45.69-12.69.91-5.47.29-10.95.35-16.42.66-10.67.59-21.33 1.29-31.99 1.92-6.35.37-12.71.7-19.06 1.05M279.84 270.64c-.27 4.55-.55 9.11-.82 13.6 14.7.84 28.86 1.65 43.19 2.46.06-1.42.12-2.67.18-3.91M391.54 532.26c-.52 3.37-3 5.68-4.75 8.32-5.51 8.33-11.3 16.47-16.95 24.71-3.72 5.42-7.42 10.86-11.03 16.36-.51.78-.48 1.91-.7 2.88M291.89 412.31c4.59-1.18 9.23-1.63 13.95-.93 2.71.4 5.43.91 8.16 1.03 2.15.1 4.33-.51 6.49-.47 3.92.07 7.83.38 11.84.6-.36 18.65-.7 36.82-1.06 55.31-5.26.4-10.59.71-15.89-.61M29.81 452.93c-.65 2.14-1.58 4.25-1.9 6.44-.76 5.19-1.43 10.4-1.76 15.63-.54 8.82-.34 17.64.86 26.41.29 2.1.5 4.22.91 6.3.18.9.76 1.72 1.17 2.57M291.99 390.45c-.25 2.23-.65 4.46-.72 6.7-.21 6.58-.3 13.17-.41 19.76-.12 7.19-.14 14.38-.31 21.57-.15 6.31-.53 12.62-.67 18.93-.15 7.03-.06 14.06-.22 21.08-.16 6.81-.52 13.62-.77 20.43-.11 2.95-.15 5.9-.22 8.86M221.17 444.96c6.76-9.67 13.51-19.35 20.29-29.01 2.17-3.09 4.33-6.21 6.7-9.15.87-1.09 2.31-1.73 3.37-2.49 3.47 2.24 3.63 3.79 1.46 6.86-8.3 11.76-16.53 23.58-24.8 35.36-.68.97-1.45 1.87-2.15 2.83-1.06 1.44-2.2 2.47-4.25 1.87-2.24-.65-2.24-2.29-2.13-4.08" class="cls-1"/>
    <path d="M314.56 421.24c-.23 4.78-.53 9.56-.68 14.35-.32 10.28-.56 20.57-.85 31.31-3.2.14-6.42.47-9.63.38-4.35-.12-8.69-.56-13.03-.86M174.97 96.07c-5 .74-10.02 1.36-15 2.24-6.93 1.23-13.83 2.64-20.22 3.88-1.24 5.5-2.48 10.82-3.6 16.17-.15.73.27 1.59.43 2.39M322.18 305.14c-.15-1.07-.29-2.13-.44-3.19-14.21-.43-28.3-.87-42.34-1.29v11.38M208.02 457c-6.44-.07-12.89-.13-19.87-.2l-.21 26c9.24.08 18.21.16 27.18.23M388.52 215.26c4.19 1.37 8.6 2.27 12.5 4.22 5.78 2.88 11.41 6.19 15.86 11.08.77.85 1.92 1.44 2.45 2.39.8 1.45 1.46 3.07 1.74 4.69.42 2.47.51 5 .62 7.51.05 1.06-.21 2.14-.35 3.5 1.97.11 4.05.24 6.13.34 3.78.18 7.57.21 11.33.57 3.16.3 5.65 2.2 7.59 4.51 4.16 4.95 8.31 9.95 12.08 15.2 5.6 7.78 10.03 16.28 13.94 25.02.77 1.72.9 3.73 1.32 5.61M304.8 531.01c-.92 2.93-1.79 5.88-2.76 8.79-1.14 3.4-2.35 6.77-3.55 10.14-1.37 3.85-2.81 7.67-4.11 11.54-1.99 5.91-3.88 11.85-5.81 17.77M31.16 453.74c.31 3.89.55 7.78.94 11.66 1.36 13.38 2.77 26.76 4.16 40.13.59 5.65 1.21 11.29 1.75 16.94.08.89-.21 1.81-.33 2.72M441.59 506.65c.25 3.03.51 6.05.75 9.08.61 7.85 1.22 15.71 1.78 23.57.05.63-.09 1.42-.44 1.92-3.19 4.52-8.96 5.2-13.39 1.87-2.13-1.6-1.46-3.91-1.62-5.79-.85-9.7-1.32-19.43-1.92-29.16-.01-.24.1-.48.16-.73M192.54 357.57c.02-5.46.03-10.92.05-16.44-6.21.02-11.99.04-18.18.07.05 12.17-.12 24.18.21 36.02 2.59.05 4.46.09 6.32.13M133.92 133.63c-.39 1.35-.88 2.69-1.15 4.07-1.54 7.8-3.11 15.59-4.51 23.41-1.19 6.61-2.17 13.25-3.24 19.88M99.37 128.89c3.63 1.58 7.24 3.2 10.89 4.73 2.26.95 2.8 2.05 2.53 5.68-.46 6.35-3.6 11.36-7.9 15.77-.86.88-1.88 1.62-3.22 2.77-2-.74-4.24-1.62-6.52-2.38-.77-.26-1.64-.23-2.47-.33M382.81 192.08c-3.07-1.03-6.14-2.09-9.23-3.08-1.1-.35-2.25-.52-3.68-.85 2 8.03 3.9 15.72 5.96 23.99l12.23 2.76" class="cls-1"/>
    <path d="M183.55 359.1c2.87.03 5.74.07 9.07.11l.18 39.63c-3.11.17-6.14.33-9.17.49M214.55 306.3c-.28-5.92-.52-11.83-.84-17.75-.19-3.45-.49-6.89-.75-10.5-10.23-3.7-20.43-2.67-30.79.54.62 10.05 1.23 20.01 1.84 29.97M121.54 540.3c-2.95 3.66-5.97 7.27-8.83 11-6.8 8.87-13.55 17.79-20.26 26.74-.56.75-.63 1.87-.93 2.82M251.87 41.66c-.11-11.56-.2-23.12-.33-34.68-.02-1.89-.16-3.77-.24-5.66M246.53.5l-2.25 40.97M69.51 456.29c-1.17-1.2-2.44-2.32-3.5-3.61-5.97-7.28-13.68-8.29-22.47-6.38.57 8.45.98 16.8 1.73 25.12 1.02 11.39 2.29 22.75 3.46 34.13.03.34-.03.69.03 1.02 1.03 5.11 2.08 5.94 7.4 5.47 4.35-.38 8.69-.91 13.04-1.37M201.53 530.87c1.1 4.91 2.15 9.84 3.3 14.74 2.37 10.05 4.79 20.09 7.19 30.13.26 1.08.53 2.16.8 3.23M183.93 438.59c-.19.47-.24 1.14-.59 1.37-8.84 5.93-14.5 14.5-19.26 23.69-4.37 8.45-8.17 17.19-12.52 25.65-2.74 5.33-5.49 10.73-9.73 15.12-1.19 1.24-2.54 2.32-3.82 3.47M129.73 529.93c.2.98.17 2.1.65 2.92 6.26 10.79 12.6 21.52 18.88 32.29 2.54 4.35 4.99 8.75 7.48 13.13M441.56 440.23c.29 7.36.52 14.72.89 22.08.47 9.29 1.06 18.56 1.58 27.85.22 4.03.41 8.06.57 12.09.04.99-.13 1.98-.2 2.95-6.26 2.46-12.52 2.72-18.89 1.63-1.93-.33-3.18-1.19-3.32-3.52-.54-9.15-1.44-18.27-1.87-27.42-.59-12.81-.89-25.63-1.24-38.45-.02-.76.46-1.72 1.01-2.28 4.15-4.2 9.75-5.09 16.49-1.12 1.01.6 1.89 1.42 2.83 2.15M156.44 439.77c-.29.53-.45 1.22-.89 1.56-6.23 4.81-9.5 11.55-12.04 18.68-3.38 9.48-6.5 19.06-9.84 28.56-.4 1.14-1.43 2.06-2.17 3.08M116.04 379.75c-.18 4.54-.37 9.08-.53 13.62-.38 11.03-.74 22.06-1.11 33.09-.03.84-.04 1.69-.06 2.53M256.14 297.87c-11-.11-22-.23-33-.31-2.89-.02-5.78.05-8.67.07M65.86 559.29c-3.68 4.26-7.35 8.52-11.03 12.78-.85.98-1.7 1.95-2.62 3 .27.68.52 1.3.74 1.85-1.83 4.16-1.4 8.51-.67 12.6.99 5.51 3.51 10.43 8.49 13.69 3.92 2.56 8.16 3.56 12.79 3.13.42-.04.84.01 1.26.02M289.28 502.82c7.15.26 14.3.53 21.45.77 7.83.26 15.67.49 23.5.72.18 0 .35-.1.62-.17 5.15-9.7 4.66-19.32-.93-29.41-1.73 0-3.73-.01-5.73-.02M107.34 396.88c-.18 3.44-.43 6.87-.53 10.31-.16 5.74-.23 11.49-.34 17.23-.06 3.13-.15 6.26-.23 9.34 1.43-.03 2.71-.06 3.99-.09M93.28 376.91c-.72-4.06-1.72-3.72-4.59-3.29-3.66.55-7.32 1.22-10.9 2.13-2.81.72-2.27-.11-3.03 3.16.69 2.16 1.95 2.82 4.36 2.24 3.64-.87 7.38-1.28 11.08-1.89 1.33-.22 2.55-.65 3.02-2.11M93 386.01c-.8-.6-1.68-1.82-2.38-1.71-5.02.73-10 1.73-14.83 2.61-1.03 1.54-1.51 2.84-.5 4.27 1.02 1.45 2.42 1.16 3.87.89 3.61-.67 7.23-1.31 10.86-1.87 1.87-.29 3.09-1.1 3.24-3.1M92.65 396.61c-.5-.66-1-1.31-1.63-2.13-4.92.84-9.83 1.66-14.73 2.52-1.7.3-2.19 1.69-2.16 3.06.03 1.61 1.58 2.76 3.19 2.49 4.43-.72 8.84-1.56 13.26-2.33 1.44-.25 2.12-1.17 2.35-2.53M94.19 353.7c-.37-2.21-1.67-2.82-3.79-2.4-3.6.71-7.23 1.28-10.85 1.9-1.42.24-2.93.26-3.52 2.01-.57 1.71.12 2.9 1.67 4.08 4.7-.8 9.63-1.55 14.5-2.54.85-.17 1.51-1.29 2.26-1.97M130.26 450.91c.06 6.88.07 13.77.19 20.65.1 5.64.32 11.27.5 16.91.04 1.23.16 2.45.27 3.97-3.17 5.79-3.48 6.1-6.96 6.11-.45-1.3-.97-2.79-1.49-4.29M127.5 291.74c-.31-1.68-.62-3.35-.94-5.05-8.96-1.74-21.94-.37-27.13 3.97-1.5 8.44-.15 17.25.04 26.05M277.04 271.79c-.14 2.51-.36 5.02-.42 7.54-.22 9.46-.36 18.92-.58 28.38-.03 1.15-.33 2.3-.5 3.45M450.45 569.98c1.63-7.2-3.64-15.41-11.12-17.26-5.75-1.42-10.83-.21-15.15 3.95-.55.52-1.21.92-1.83 1.38M246.74 300.07c-1.11.95-.17 2.02-.14 3.01.09 2.35.36 4.7.58 7.33 2.36.25 4.66.59 6.98.73 5.78.34 11.57.63 17.36.85 1.13.04 2.28-.3 3.42-.47M502.04 509.35c.25 1.16.63 2.31.72 3.48.25 3.5.39 7.01.59 10.83-7.47 4.61-15.52 5.71-24.06 4.23" class="cls-1"/>
    <path d="M206.91 450.65c-9.75.35-19.49.72-29.24 1.01-1.82.05-3.66-.29-5.49-.45M294.15 502.65c.87-1.24 1.76-2.48 2.62-3.74 3.62-5.24 3.48-11.13 2.47-16.96-.59-3.42-1.59-6.9-3.91-9.42-1.3-.16-2.37-.29-3.45-.42M484.84 420.98c-.41.67-1.01 1.3-1.19 2.02-.96 3.94-1.82 7.9-2.77 12.13 3.54-.16 6.52-.29 9.51-.43 1.57-.07 2.01-1.25 2.64-2.44.89-1.68.84-3.93 2.85-4.97M435.5 425.37c-2.7.32-5.4.82-8.11.94-7.94.34-15.88.51-23.83.79-.3.01-.59.35-.89.54M182.41 286.32c-6.77.68-13.54 1.35-20.31 2.04-8.77.89-17.54 1.81-26.31 2.71-1.9.19-3.81.47-5.71.46-2.7-.01-4.15 1.43-5.17 3.7-2.21 4.92-1.74 9.74.27 14.58.67 1.61 1.14 3.3 1.7 4.95M117.9 533.88c-2.52 2.91-5.09 5.78-7.56 8.73-4.7 5.62-9.34 11.29-14.01 16.94M302.03 473.38c2.35 4.22 3.94 8.57 3.89 13.58-.05 5.49-1.91 10.21-4.67 14.75-.16.27-.16.64-.23.96M213.98 297.52c-3-.25-5.99-.57-8.99-.74-7.06-.42-13.99.55-20.84 2.16M501.03 457.47c-7.2 2.93-14.79 3.48-22.44 3.56-2.51.03-5.02-.26-7.54-.4" class="cls-1"/>
    <path d="M296.3 472.85c2.97 0 5.95-.14 8.91 0 5.77.28 11.54.7 17.31 1.09 1.75.12 3.5.31 5.27.46 2.79 5.19 4.67 10.77 4.22 16.7-.27 3.49-1.73 6.89-2.74 10.3-.26.89-.86 1.67-1.3 2.51M246.45 363.37c-2.67.16-5.33.48-8 .46-7.01-.05-14.02-.25-21.02-.39M500.68 450.01c-6.67 3.15-13.92 3.34-21.04 4.12-2.88.32-5.81.25-8.72.36M73.51 564.84c-.39 2.12-.67 4.26-1.2 6.34-1.15 4.46-5.3 7.56-9.85 7.73-3.4.13-6.4-1.07-9.39-2.4M469.84 446.86c-5.62.09-11.24.16-16.85.28-3.59.08-7.18.24-10.77.36M154.58 115.39c-.11 2.35.06 4.75-.37 7.04-1.37 7.37-4.93 13.15-12.41 15.78-.22.08-.4.24-.6.37M236.55 124.22c.41-5.44-2.79-9.03-9.21-9.92-4.02-.56-8.43 1.88-9.63 6.95-1.05 4.42 1.41 9.01 5.71 10.41 6.09 1.98 10.61.09 12.58-5.02M61.82 511.81c.82 7.65 1.66 15.3 2.43 22.95.13 1.25-.04 2.53-.07 3.79M375.54 297.58c.21-2.07.51-4.14.62-6.22.16-3.13.18-6.26.26-9.6-3.85 2.57-7.51 5-11.49 7.65 3.32 2.69 6.62 5.32 9.87 8.02.57.47.93 1.2 1.38 1.82M417.96 518.88c.24 1.58.6 3.15.69 4.74.26 4.79.45 9.58.58 14.38.07 2.54 2.05 3.86 3.36 5.57 5.84 7.61 15.45 8.17 22.16 4.24 1.31-.77 2.46-1.8 3.68-2.71M444.69 578.61c-6.63-7.09-13.25-14.19-19.88-21.28M124.23 296.1c-4.84-1.03-9.7-1.02-14.5.07-3.57.81-7.07 1.94-10.6 2.92M192.54 399.31c.13 5.46.27 10.91.36 16.37.03 1.84-.08 3.67-.12 5.59-2.55-.02-4.76-.04-6.96-.06M55.57 512.43c.7 7.03 1.43 14.06 2.08 21.09.07.78-.33 1.61-.51 2.42M331.6 421.27c-4.43-.89-8.87-.92-13.38-.55-3.5.28-7.08.02-10.6-.32-5.52-.53-10.97-.09-16.43.66M123.12 305.52c-7.17-.7-14.14.61-21.09 2.11-.8.17-1.6.32-2.4.48M492.7 501.14c3.05-.14 5.55 1.36 7.99 2.86 1.81 1.11 2.24 2.87 1.36 5-7.53 3.76-15.8 4.29-24.12 4.59" class="cls-1"/>
    <path d="M35.91 505.96c-1.89.13-3.19 1.23-4.41 2.56-.76.82-1.68 1.5-2.59 2.3.21 4.41 2.42 8.02 5.18 11.23 4.53 5.27 10.37 8.79 16.73 11.44 9.14 3.81 18.41 7.31 27.44 11.37 6.93 3.12 13.02 7.58 16.82 14.44 1.32 2.37 2.12 5.03 3.17 7.55.2.49.46.95.69 1.43M443.69 490.59c-6.96 3.22-14.11 3.79-21.47 1.53-.23-.07-.52.04-.78.07M100.64 126.63c-.4.25-.95.41-1.16.77-.5.89-.83 1.86-1.28 2.91 3 4.19 2.72 11.19-.91 16.68-1.02 1.53-2.32 2.88-3.49 4.31M165.72 288.15c-.43 2.28-.88 4.55-1.28 6.84-.9 5.1-.17 9.86 2.9 14.15.2.28.19.71.28 1.07M133.1 291.74c-.39 1.35-.73 2.72-1.18 4.06-1.89 5.66-1.1 11.07 1.39 16.36.18.39.16.87.23 1.31M480.49 368.09c.79 7.39 1.58 14.78 2.38 22.17M93.72 364.79l-.6 2.68c-5.37.95-10.63 1.89-16.29 2.89-.66-1.22-1.37-2.5-2.27-4.16 1.35-.73 2.36-1.59 3.51-1.85 3.87-.86 7.77-1.61 11.69-2.19 1.36-.2 2.97-.15 3.7 1.55M182.91 341.65c.06 5.02.12 10.03.16 15.05.13 14.11.27 28.22.37 42.33.04 5.68 0 11.36-.04 17.04 0 .48-.2.97-.31 1.45M491.07 490.34c.27 1.08.7 2.14.77 3.24.32 4.79.53 9.58.78 14.5-4.84 2.4-9.82 1.84-14.78 1.42M69.45 498.26c-2.6.6-5.18 1.26-7.79 1.79-4.49.91-8.99.4-13.48.02M100.71 530c-2.51-.14-5.02-.38-7.54-.41-3.57-.04-7.14.04-10.71.13-.72.02-1.44.33-2.16.51M289.11 495.66c1.91.61 2.61-1.01 3.21-2.09 2.31-4.17 2.09-8.54.39-12.85-.46-1.16-1.34-2.11-2.84-1.93M216.24 463.44c-.31 7.57-.65 15.13-.91 22.7-.23 6.66-.39 13.32-.57 19.98M414.16 209.85c-.77-.34-1.78-.48-2.27-1.06-3.52-4.17-7.83-7.31-12.57-9.88-.61-.33-1.47-.2-2.22-.28M411.31 292.42c.17-2.03-1.25-2.87-2.73-3.67-3.05.4-4.18 1.27-4.32 3.35-.11 1.67 1.07 3.42 2.74 3.63 1.86.24 3.53-.16 4.1-2.35M336.52 391.59c-1.49 4.5-2.98 9.01-4.53 13.68-7.46-.3-14.87-.6-22.28-.89-5.04-.2-10.09-.39-15.13-.63-.99-.05-1.97-.26-2.96-.4M364.13 207.21c1.91.23 3.83.47 5.84.71-2.3-10.84-4.5-21.28-6.74-31.7-1.06-4.92-2.18-9.83-3.29-14.74-.19-.83-.33-1.72-.74-2.44-1.49-2.63-3.37-2.85-5.72-.72 1.67 8.04 3.32 16.13 5.03 24.21 2.04 9.63 4.11 19.26 6.23 28.88.21.93.75 1.95 1.45 2.58 1.09.97 2.63 1.19 3.69.08.66-.7.73-1.96 1.05-2.9-2.11-.32-3.67-.56-5.23-.8M353.32 258.47c-.65-2.17-2.08-3.51-3.57-3.35a3.688 3.688 0 0 0-3.29 3.33c-.17 1.64.53 2.89 2.02 3.48 1.82.72 3.43.41 4.41-1.52M414.02 415.69c-1.13-2.51-3.07-3.64-4.94-2.9-1.48.59-2.26 2.57-1.76 4.44.74 2.77 3.47 3.16 6.16.88M108.38 342.65c-.74-1.13-1.47-2.27-2.1-3.24-2.39.18-4.16.41-4.66 2.74-.37 1.73.05 3.03 1.66 3.96 1.89 1.09 3.32.55 4.56-1.03M416.14 591.25c-3.91.05-7.83.18-11.74.12-2.08-.03-4.15-.39-6.22-.61M276.47 273.19c-3.51 2.01-7.04 3.96-10.51 6.04-3.11 1.86-6.14 3.86-9.21 5.8M15 439.66c3.75 3.31 7.52 6.58 11.24 9.93 2.68 2.41 5.44 4.23 9.37 3.7 2.58-.35 5.25-.07 7.88-.07M353.53 325.19c-.71-3.3-2.53-4.58-4.83-3.38-2.01 1.04-2.59 2.51-1.76 4.44.84 1.97 2.59 2.66 4.68 1.81.32-.13.6-.37.89-.55M471.54 591.54c-5.11-.3-10.21-.6-15.31-.92-.57-.04-1.13-.24-1.7-.37M109.21 467.53c3.93 4.37 7.89 8.72 11.79 13.1 2.12 2.38 4.15 4.86 6.28 7.24.38.42 1.04.6 1.56.89M113.32 494.42c-1.25 5.55-.04 9.8 3.67 11.98 1.49.88 3.26 1.29 4.9 1.92M171.55 439.36c-.17.39-.24.95-.53 1.13-7.5 4.45-12.24 11.26-16.17 18.77-.99 1.88-1.86 3.83-2.84 5.71-.21.41-.65.71-.98 1.06M269.72 351.57c-.95 4.69-4.14 7.66-7.9 10.17-1.02.68-2.13 1.22-3.2 1.83M266.75 452.7c-.69-1.09-1.37-2.18-2.28-3.61-1.5 1.06-2.7 1.9-4.35 3.07 1.06 1.26 1.72 2.51 2.76 3.15 1.35.82 2.74.4 3.54-1.16M410.35 355.31c.48-2.24-.98-3.27-2.69-3.87-1.58-.55-3.44.54-4.02 2.1-.7 1.88.01 3.3 1.54 4.42 1.55 1.14 3.22.57 4.96-1.68M261.87 397.65c-.54-.5-1.09-1.01-1.54-1.42-3.76.4-4.35 1.15-3.75 4.56 2.54 1.88 2.95 1.87 5.12-.12M82.87 275.31c-.35-.99-.69-1.99-1.04-2.98-3.68 1.29-4.29 4.54-1.36 7.22.54-.42 1.14-.87 1.74-1.33M218.02 454.42c-.73-1.8-2.06-2.5-3.89-1.87-1.53.52-2.35 2.64-1.66 3.93 1.11 2.1 2.57 2.35 4.9.85M143.84 381.7c.08-1.43.17-2.85.28-4.78-12.25.92-24.39 1.83-36.46 2.73-.12 2.16-.23 4.09-.34 6.02M444.87 539.46c2.68.3 3.59 1.66 3.62 5.31 4.91 2.89 7.93 7.08 9.14 12.59M81.81 334.11l-1-2.38c-3.3.79-3.78 4.64-.89 7.79.5-.48 1-.96 1.5-1.43M50.29 555.01c-2.07 2.96-4.02 5.99-3.98 9.79.05 4.54 2.08 8.06 5.72 10.71M128.58 665.82c-.22 2.82.01 5.71-1.57 8.32-.34.56-.05 1.5-.06 2.26M127.15 488.38c-3.55.3-7.09.66-10.64.89-2.38.15-4.77.13-7.16.18M51.69 576.96l-8.54 8.51M117.22 478.25l-7.03 8.59M142.38 451.35l-9.2-2.08M85.86 585.69c-2.43-.12-4.86-.24-7.29-.38-.75-.04-1.49-.16-2.23-.24M109.66 468.91c-.16 2.59-.4 5.18-.47 7.78-.1 3.89-.08 7.79-.11 11.68M139.74 386.37c-6.08.24-12.15.47-18.23.73-1.81.07-3.61.2-5.41.3M192.39 403.34c-2.89.03-5.78.05-8.67.08M211.1 331.73c-.73-.94-1.45-1.87-2.01-2.58-2.45-.05-4.22.62-4.78 2.58-.39 1.34-.09 2.96 1.35 3.84 1.63 1 3.24.91 4.68-.45M130.21 378.75v7M314.18 404.87c.14 5.38.29 10.75.43 16.13M181.26 463.94c.1-2.11.21-4.21.32-6.51-3.19 1.75-6.17 3.39-9.15 5.03M128.21 378.75v8M181.32 471.59c-1.35.71-2.72 1.38-4.04 2.15-1.47.86-2.88 1.8-4.85 3.05 2.6 1.5 4.83 2.78 7.05 4.06" class="cls-1"/>
    <path d="M120.24 379.17c-.06 2.53-.12 5.06-.19 7.59M214.15 401.64c-.82-1.62-1.85-2.55-3.91-1.95-1.52.44-1.93 1.6-1.76 2.67.18 1.14 1.07 2.18 1.8 3.54 1.36-.75 2.34-1.29 3.33-1.84M122.22 483.19l-6.13 5.74M309.17 404.5l-.51 6.76M179.64 466.63c-2.02-1.22-4.03-2.44-6.05-3.65M296.76 404.25c0 2.29-.02 4.58-.02 6.87M327.26 405.53l.09 6.38M114.22 473.5c-1.57 1.68-3.13 3.36-4.7 5.05M181.1 472.56c-.03 2.03-.07 4.06-.1 6.08M484.92 420.62c1.26.75 1.21 1.89 1.1 3.17-.09 1.11.13 2.24.22 3.36M428.58 540.62c-2.71.02-3.66 1.98-4.48 4.08M363.47 178.56c-1.85-.08-3.7-.16-5.55-.23M368.58 202.11c-1.85-.08-3.7-.16-5.55-.23M359.91 162.74l-5.44-.72M143.59 451.63l-.97-.22c0 .34.02.68.03 1.16-1.87-.04-3.74-.09-5.6-.13M366.8 195.34l-5.25-.42M368.66 205.18c-1.65-.2-3.3-.41-4.95-.61M367.06 198.71c-1.65-.2-3.3-.41-4.95-.61M365.58 191.76c-1.65-.2-3.3-.41-4.95-.61M362.67 175.32l-5.06-.12M359.43 160.34l-5.06-.12M318.65 468.48l-.12 5.06M363.54 181.63c-1.57-.18-3.14-.37-4.71-.55M364.58 184.92c-1.57-.18-3.14-.37-4.71-.55M361.52 172.52c-1.57-.18-3.14-.37-4.71-.55M365.02 188.58c-1.57-.18-3.14-.37-4.71-.55M303.82 467.68c.14 1.64.28 3.29.41 4.93M361.08 168.86c-1.49-.17-2.98-.33-4.47-.5M360.04 165.57c-1.41-.15-2.82-.3-4.23-.44M419.27 449.96c-1.2.07-2.41.14-3.61.2" class="cls-1"/>
    <path d="M146.44 452.52c-1.17-.09-2.33-.19-3.5-.28M400.57 265.57c-.77-.34-1.54-.69-2.31-1.03M181.16 480.21c-.27.45-.54.9-.81 1.34M188.16 643.13l-1.69-.38M156.83 451.56l1.59.87M163.49 172.88c-.05.58-.09 1.17-.14 1.75M332.9 580.11l-1.69-.38M150.19 579.08l-1.27-.03M454.24 621.99c-.34 0-.68.02-1.02.02M370.05 208.04c.03.26.05.52.08.78M229.87 100.82c-5.51-.72-10.64.15-15.48 3.1-8.96 5.45-10.64 18.02-3.25 25.77 9.22 9.69 25.52 8.4 32.61-.74 5.46-7.03 3.69-17.27-2.38-22.54-3.33-2.89-7.01-4.68-11.25-5.53" class="cls-1"/>
  </g>
</svg>
